# xmcd CD database file
#
# Track frame offsets:
#	150
#	18530
#	35905
#	51827
#	68495
#	85150
#	99750
#	116062
#	133042
#
# Disc length: 2044 seconds
#
# Revision: 0
# Processed by: cddbd v1.4PL0 Copyright (c) Steve Scherf et al.
# Submitted via: CDex 1.50
#
DISCID=7307fa09
DTITLE=Big Dick Hertzer - Beer Makes You Pretty
DYEAR=1900
DGENRE=Country
TTITLE0=Flathead Girls
TTITLE1=Sex On The Beach
TTITLE2=Mustache Rider
TTITLE3=My Pet Roost
TTITLE4=Beer Makes You Pretty
TTITLE5=Helen's Melons
TTITLE6=Simple Life
TTITLE7=Why Buy The Cow
TTITLE8=Mattress Monkey
EXTD=
EXTT0=
EXTT1=
EXTT2=
EXTT3=
EXTT4=
EXTT5=
EXTT6=
EXTT7=
EXTT8=
PLAYORDER=
